<svg xmlns="http://www.w3.org/2000/svg" xmlns:xlink="http://www.w3.org/1999/xlink" width="181.8181mm" height="139.4808mm" viewBox="0 0 515.39 395.3786"><defs><style>.a{fill:url(#a);}.b{fill:url(#b);}.c{fill:url(#c);}.d{fill:url(#d);}.e{fill:url(#e);}.f{fill:url(#f);}</style><linearGradient id="a" x1="71.89" y1="226.6623" x2="485.95" y2="226.6623" gradientUnits="userSpaceOnUse"><stop offset="0" stop-color="#04142a"/><stop offset="0.1868" stop-color="#04182d"/><stop offset="0.3812" stop-color="#032536"/><stop offset="0.579" stop-color="#033944"/><stop offset="0.7794" stop-color="#025759"/><stop offset="0.9797" stop-color="#007c73"/><stop offset="1" stop-color="#008076"/></linearGradient><linearGradient id="b" x1="71.89" y1="147.1743" x2="485.95" y2="147.1743" gradientUnits="userSpaceOnUse"><stop offset="0" stop-color="#04142a"/><stop offset="0.4345" stop-color="#04142a"/><stop offset="1" stop-color="#008076"/></linearGradient><linearGradient id="c" x1="88.2199" y1="303.9037" x2="469.62" y2="303.9037" xlink:href="#a"/><linearGradient id="d" x1="20.34" y1="406.6477" x2="208.2112" y2="406.6477" gradientUnits="userSpaceOnUse"><stop offset="0" stop-color="#04142a"/><stop offset="1" stop-color="#00142a"/></linearGradient><linearGradient id="e" x1="20.8638" y1="394.1133" x2="536.2538" y2="394.1133" xlink:href="#a"/><linearGradient id="f" x1="30.4512" y1="406.6477" x2="345.7434" y2="406.6477" gradientTransform="matrix(-1, 0, 0, 1, 566.1812, 0)" gradientUnits="userSpaceOnUse"><stop offset="0" stop-color="#008076"/><stop offset="0.1868" stop-color="#00726c"/><stop offset="0.5406" stop-color="#004d52"/><stop offset="1" stop-color="#00142a"/></linearGradient></defs><path class="a" d="M485.95,172.9v49.24a2.8381,2.8381,0,0,1-2.06,2.73L280.2481,283.08a4.833,4.833,0,0,1-2.6563,0L73.95,224.87a2.8381,2.8381,0,0,1-2.06-2.73V172.9a2.8307,2.8307,0,0,1,3.61-2.73l202.0949,57.6222a4.8334,4.8334,0,0,0,2.65,0L482.34,170.17A2.8307,2.8307,0,0,1,485.95,172.9Z" transform="translate(-20.34 -90.572)"/><path class="b" d="M485.95,93.41v49.24a2.8381,2.8381,0,0,1-2.06,2.73L280.247,203.5907a4.8286,4.8286,0,0,1-2.654,0L73.95,145.38a2.8381,2.8381,0,0,1-2.06-2.73V93.41a2.84,2.84,0,0,1,3.61-2.73l202.0961,57.6225a4.827,4.827,0,0,0,2.6478,0L482.34,90.68A2.84,2.84,0,0,1,485.95,93.41Z" transform="translate(-20.34 -90.572)"/><path class="c" d="M469.62,255.7v39.73a2.8419,2.8419,0,0,1-2.01,2.69L280.3132,354.7589a4.8153,4.8153,0,0,1-2.7864,0L90.23,298.0536a3.0262,3.0262,0,0,1-2.01-2.69V255.7a2.8359,2.8359,0,0,1,3.6-2.75l185.7938,52.3619a4.8158,4.8158,0,0,0,2.6124,0L466.02,252.95A2.8359,2.8359,0,0,1,469.62,255.7Z" transform="translate(-20.34 -90.572)"/><path class="d" d="M20.34,374.9925a1.7351,1.7351,0,0,1,2.2215-1.6682c58.2719,16.9746,103.0279,30.475,127.5137,38.3994,19.7421,6.3891,40.4358,14.7125,50.1151,20.1238,6.3608,3.556,7.1559,4.9656,7.2174,5.0048h0a1.729,1.729,0,0,1-.8977,3.1891l-158.5512-.1362c-4.73-.004-14.4166.4229-21.181-8.2721-7.267-9.3409-6.0136-18.7512-6.4382-20.8574Z" transform="translate(-20.34 -90.572)"/><path class="e" d="M535.73,305.1v39.1441a4.5622,4.5622,0,0,1-3.2531,4.37L426.64,380.32c-61.29,18.1-79.32,24.21-98.77,40.02-23.9063,19.438-37.6067,43.48-45.6355,62.8051a4.55,4.55,0,0,1-8.4052-.001c-8.023-19.3247-21.7234-43.3665-45.6293-62.8041-19.45-15.81-37.48-21.92-98.77-40.02L23.5931,348.6145a4.5623,4.5623,0,0,1-3.2531-4.37V305.1a2.8235,2.8235,0,0,1,3.65-2.7l252.7226,76.2226a4.5631,4.5631,0,0,0,2.6349,0Q405.7236,340.5114,532.08,302.4A2.8235,2.8235,0,0,1,535.73,305.1Z" transform="translate(-20.34 -90.572)"/><path class="f" d="M535.73,374.9925a1.7351,1.7351,0,0,0-2.2215-1.6682c-58.2719,16.9746-103.0279,30.475-127.5137,38.3994-19.7421,6.3891-40.4358,14.7125-50.1151,20.1238-6.3608,3.556-7.1558,4.9656-7.2174,5.0048h0a1.729,1.729,0,0,0,.8977,3.1891l158.5512-.1362c4.73-.004,14.4166.4229,21.181-8.2721,7.267-9.3409,6.0136-18.7512,6.4382-20.8574Z" transform="translate(-20.34 -90.572)"/></svg>